<svg width="26" height="26" viewBox="0 0 26 26" fill="none" xmlns="http://www.w3.org/2000/svg">
<path d="M10.7193 17.3125C10.6081 17.3125 10.504 17.295 10.4068 17.26C10.3095 17.2256 10.2193 17.1667 10.1359 17.0833L6.55259 13.5C6.39981 13.3472 6.32676 13.1492 6.33343 12.9058C6.34065 12.6631 6.42065 12.4653 6.57343 12.3125C6.7262 12.1597 6.92065 12.0833 7.15676 12.0833C7.39287 12.0833 7.58731 12.1597 7.74009 12.3125L10.7193 15.2917L17.7818 8.22917C17.9345 8.07639 18.1326 8 18.3759 8C18.6187 8 18.8165 8.07639 18.9693 8.22917C19.122 8.38194 19.1984 8.57972 19.1984 8.8225C19.1984 9.06583 19.122 9.26389 18.9693 9.41667L11.3026 17.0833C11.2193 17.1667 11.129 17.2256 11.0318 17.26C10.9345 17.295 10.8304 17.3125 10.7193 17.3125Z" fill="white"/>
<circle cx="12.9997" cy="13.0002" r="11.6667" stroke="white" stroke-width="2"/>
</svg>
