<svg width="32" height="32" viewBox="0 0 32 32" fill="none" xmlns="http://www.w3.org/2000/svg">
<g clip-path="url(#clip0_2387_11701)">
<path d="M25.1124 17.5044C25.1637 17.12 25.1893 16.7228 25.1893 16.3C25.1893 15.89 25.1637 15.48 25.0996 15.0956L27.7006 13.0712C27.9312 12.8919 27.9952 12.5459 27.8543 12.2897L25.3943 8.03594C25.2406 7.75406 24.9202 7.66437 24.6384 7.75406L21.5762 8.98406C20.9356 8.49719 20.2565 8.08719 19.5006 7.77969L19.0393 4.52531C18.9881 4.21781 18.7318 4 18.4243 4H13.5043C13.1968 4 12.9534 4.21781 12.9021 4.52531L12.4409 7.77969C11.6849 8.08719 10.9931 8.51 10.3652 8.98406L7.30306 7.75406C7.02119 7.65156 6.70087 7.75406 6.54713 8.03594L4.09994 12.2897C3.94619 12.5587 3.99744 12.8919 4.25369 13.0712L6.85462 15.0956C6.79056 15.48 6.73931 15.9028 6.73931 16.3C6.73931 16.6972 6.76494 17.12 6.829 17.5044L4.22806 19.5288C3.99744 19.7081 3.93338 20.0541 4.07431 20.3103L6.53431 24.5641C6.68806 24.8459 7.00837 24.9356 7.29025 24.8459L10.3524 23.6159C10.9931 24.1028 11.6721 24.5128 12.4281 24.8203L12.8893 28.0747C12.9534 28.3822 13.1968 28.6 13.5043 28.6H18.4243C18.7318 28.6 18.9881 28.3822 19.0265 28.0747L19.4877 24.8203C20.2437 24.5128 20.9356 24.1028 21.5634 23.6159L24.6256 24.8459C24.9074 24.9484 25.2277 24.8459 25.3815 24.5641L27.8415 20.3103C27.9952 20.0284 27.9312 19.7081 27.6877 19.5288L25.1124 17.5044ZM15.9643 20.9125C13.4274 20.9125 11.3518 18.8369 11.3518 16.3C11.3518 13.7631 13.4274 11.6875 15.9643 11.6875C18.5012 11.6875 20.5768 13.7631 20.5768 16.3C20.5768 18.8369 18.5012 20.9125 15.9643 20.9125Z" stroke="#111111" stroke-width="1.5"/>
</g>
<defs>
<clipPath id="clip0_2387_11701">
<rect width="32" height="32" fill="white"/>
</clipPath>
</defs>
</svg>
